<?xml version="1.0" encoding="UTF-8" standalone="no"?>
<!-- Created with Inkscape (http://www.inkscape.org/) -->

<svg
   width="115.32954"
   height="116.90013"
   viewBox="0 0 30.514272 30.929826"
   version="1.1"
   id="svg1"
   xml:space="preserve"
   inkscape:version="1.3.2 (091e20e, 2023-11-25, custom)"
   sodipodi:docname="рисунок.svg"
   xmlns:inkscape="http://www.inkscape.org/namespaces/inkscape"
   xmlns:sodipodi="http://sodipodi.sourceforge.net/DTD/sodipodi-0.dtd"
   xmlns="http://www.w3.org/2000/svg"
   xmlns:svg="http://www.w3.org/2000/svg"><sodipodi:namedview
     id="namedview1"
     pagecolor="#ffffff"
     bordercolor="#000000"
     borderopacity="0.25"
     inkscape:showpageshadow="2"
     inkscape:pageopacity="0.0"
     inkscape:pagecheckerboard="0"
     inkscape:deskcolor="#d1d1d1"
     inkscape:document-units="mm"
     inkscape:zoom="4.0970529"
     inkscape:cx="143.39576"
     inkscape:cy="133.38856"
     inkscape:window-width="1920"
     inkscape:window-height="1009"
     inkscape:window-x="-8"
     inkscape:window-y="410"
     inkscape:window-maximized="1"
     inkscape:current-layer="layer2"
     showguides="true" /><defs
     id="defs1" /><g
     inkscape:groupmode="layer"
     id="layer2"
     inkscape:label="Слой 2"
     style="opacity:1"
     transform="translate(-23.634541,-19.044163)"><path
       id="path12"
       style="fill:#ffcc00;stroke:#000000;stroke-width:0.36"
       d="m 36.805352,31.120158 c 0.250265,2.281647 -0.732931,2.131043 -2.009226,2.62569 -0.955893,0.370471 -0.768731,1.531151 -3.379151,-0.34248 -4.645456,-3.33428 -6.872443,-6.644142 -7.580258,-14.133072 4.589233,0.958948 12.066498,3.625133 12.968635,11.849862 z"
       sodipodi:nodetypes="ssscs"
       inkscape:export-filename="..\..\..\..\Projects\VueProjects\test-svg\public\rab.svg"
       inkscape:export-xdpi="96"
       inkscape:export-ydpi="96" /><path
       id="path13"
       style="fill:#ffcc00;stroke:#000000;stroke-width:0.36"
       d="m 40.978006,31.120158 c -0.250265,2.281647 0.732931,2.131043 2.009226,2.62569 0.955893,0.370471 0.768731,1.531151 3.379151,-0.34248 4.645456,-3.33428 6.872443,-6.644142 7.580258,-14.133072 -4.589233,0.958948 -12.066498,3.625133 -12.968635,11.849862 z"
       sodipodi:nodetypes="ssscs" /><path
       id="path1"
       d="m 50.458949,41.303276 c 0.182657,6.51988 -5.314913,8.470711 -11.758533,8.470711 -6.443619,0 -12.032519,-2.133487 -11.575877,-8.470711 0.399668,-5.546551 5.086593,-10.160286 11.530212,-10.160286 6.44362,0 11.648468,4.601535 11.804198,10.160286 z"
       style="fill:#ffcc00;stroke:#000000;stroke-width:0.4;stroke-dasharray:none"
       sodipodi:nodetypes="sssss" /><path
       id="path2"
       style="stroke:#000000;stroke-width:0.359553"
       d="m 34.520916,40.890678 c 0.01615,1.279432 -0.677117,1.921976 -1.512383,1.921976 -0.835266,0 -1.544672,-0.707123 -1.512382,-1.921976 0.0282,-1.061102 0.677116,-1.921975 1.512382,-1.921975 0.835266,0 1.498989,0.860582 1.512383,1.921975 z"
       sodipodi:nodetypes="sssss" /><path
       id="path3"
       style="fill:#ffffff;stroke:none;stroke-width:0.160662"
       d="m 32.952187,40.507233 c -0.144394,0.702117 -0.435859,0.667974 -0.687783,0.639397 -0.370849,-0.04207 -0.527061,-0.544608 -0.354293,-1.059426 0.1509,-0.449661 0.468148,-0.732551 0.825013,-0.62325 0.356864,0.1093 0.312606,0.578695 0.217063,1.043279 z"
       sodipodi:nodetypes="sssss" /><path
       id="path4"
       style="stroke:#000000;stroke-width:0.36;stroke-dasharray:none"
       d="m 46.028296,40.890678 c 0.01615,1.279432 -0.677117,1.921976 -1.512383,1.921976 -0.835266,0 -1.544672,-0.707123 -1.512382,-1.921976 0.0282,-1.061102 0.677116,-1.921975 1.512382,-1.921975 0.835266,0 1.498989,0.860582 1.512383,1.921975 z"
       sodipodi:nodetypes="sssss" /><path
       id="path5"
       style="fill:#ffffff;stroke:none;stroke-width:0.160662"
       d="m 44.459567,40.507233 c -0.144394,0.702117 -0.435859,0.667974 -0.687783,0.639397 -0.370849,-0.04207 -0.527061,-0.544608 -0.354293,-1.059426 0.1509,-0.449661 0.468148,-0.732551 0.825013,-0.62325 0.356864,0.1093 0.312606,0.578695 0.217063,1.043279 z"
       sodipodi:nodetypes="sssss" /><path
       id="path8"
       style="stroke:#000000;stroke-width:0.36"
       d="m 39.695867,42.404148 c -0.246206,0.183157 -0.365976,0.28657 -0.944467,0.528741 -0.542727,-0.280185 -0.553581,-0.303055 -0.839526,-0.532777 -0.21201,-0.170324 0.216638,-0.213917 0.827417,-0.213917 0.610779,0 1.174771,0.05564 0.956576,0.217953 z"
       sodipodi:nodetypes="scsss" /><path
       style="fill:#ff0000;stroke:#000000;stroke-width:0.36;stroke-dasharray:none"
       d="m 38.095364,44.522602 c 0.100617,2.176811 1.401527,1.887849 1.518334,0.194072 -0.635854,-0.599879 -1.023055,-0.609298 -1.518334,-0.194072 z"
       id="path11"
       sodipodi:nodetypes="ccc" /><path
       style="opacity:1;fill:none;stroke:#000000;stroke-width:0.36;stroke-dasharray:none"
       d="m 36.470955,43.719943 c 0.26276,1.442317 1.793,1.095455 2.276409,0.226025 0.404045,0.65809 1.53162,1.520624 2.244118,-0.161449"
       id="path7"
       sodipodi:nodetypes="ccc" /><path
       style="opacity:1;fill:#000000;stroke:#000000;stroke-width:0.36;stroke-dasharray:none"
       d="m 38.739291,42.888489 0.03229,1.017117"
       id="path10"
       sodipodi:nodetypes="cc" /></g></svg>
